<mxfile host="app.diagrams.net" agent="Mozilla/5.0 (Windows NT 10.0; Win64; x64) AppleWebKit/537.36 (KHTML, like Gecko) Chrome/128.0.0.0 Safari/537.36 OPR/114.0.0.0" version="24.8.8">
  <diagram name="Page-1" id="besPQ_YLRBA7B4R4czMs">
    <mxGraphModel grid="1" page="1" gridSize="10" guides="1" tooltips="1" connect="1" arrows="1" fold="1" pageScale="1" pageWidth="850" pageHeight="1100" math="0" shadow="0">
      <root>
        <mxCell id="0" />
        <mxCell id="1" parent="0" />
        <mxCell id="jz8JfMkmuA9fLfp2QGGS-3" value="" style="edgeStyle=orthogonalEdgeStyle;rounded=0;orthogonalLoop=1;jettySize=auto;html=1;" edge="1" parent="1" source="jz8JfMkmuA9fLfp2QGGS-1" target="jz8JfMkmuA9fLfp2QGGS-2">
          <mxGeometry relative="1" as="geometry" />
        </mxCell>
        <mxCell id="jz8JfMkmuA9fLfp2QGGS-1" value="Start" style="strokeWidth=2;html=1;shape=mxgraph.flowchart.start_1;whiteSpace=wrap;" vertex="1" parent="1">
          <mxGeometry x="30" y="20" width="100" height="60" as="geometry" />
        </mxCell>
        <mxCell id="jz8JfMkmuA9fLfp2QGGS-5" value="" style="edgeStyle=orthogonalEdgeStyle;rounded=0;orthogonalLoop=1;jettySize=auto;html=1;" edge="1" parent="1" source="jz8JfMkmuA9fLfp2QGGS-2" target="jz8JfMkmuA9fLfp2QGGS-4">
          <mxGeometry relative="1" as="geometry" />
        </mxCell>
        <mxCell id="jz8JfMkmuA9fLfp2QGGS-2" value="Setup" style="whiteSpace=wrap;html=1;strokeWidth=2;" vertex="1" parent="1">
          <mxGeometry x="20" y="110" width="120" height="60" as="geometry" />
        </mxCell>
        <mxCell id="jz8JfMkmuA9fLfp2QGGS-36" value="" style="edgeStyle=orthogonalEdgeStyle;rounded=0;orthogonalLoop=1;jettySize=auto;html=1;" edge="1" parent="1" source="jz8JfMkmuA9fLfp2QGGS-4" target="jz8JfMkmuA9fLfp2QGGS-35">
          <mxGeometry relative="1" as="geometry" />
        </mxCell>
        <mxCell id="jz8JfMkmuA9fLfp2QGGS-4" value="Start MAIN" style="whiteSpace=wrap;html=1;strokeWidth=2;" vertex="1" parent="1">
          <mxGeometry x="20" y="200" width="120" height="60" as="geometry" />
        </mxCell>
        <mxCell id="jz8JfMkmuA9fLfp2QGGS-8" style="edgeStyle=orthogonalEdgeStyle;rounded=0;orthogonalLoop=1;jettySize=auto;html=1;entryX=1;entryY=0.5;entryDx=0;entryDy=0;exitX=1;exitY=0.5;exitDx=0;exitDy=0;" edge="1" parent="1" source="jz8JfMkmuA9fLfp2QGGS-6" target="jz8JfMkmuA9fLfp2QGGS-4">
          <mxGeometry relative="1" as="geometry">
            <Array as="points">
              <mxPoint x="160" y="430" />
              <mxPoint x="160" y="230" />
            </Array>
          </mxGeometry>
        </mxCell>
        <mxCell id="jz8JfMkmuA9fLfp2QGGS-6" value="Changing In-line Delay to enable a target (Random)" style="whiteSpace=wrap;html=1;strokeWidth=2;" vertex="1" parent="1">
          <mxGeometry x="20" y="400" width="120" height="60" as="geometry" />
        </mxCell>
        <mxCell id="jz8JfMkmuA9fLfp2QGGS-41" value="" style="edgeStyle=orthogonalEdgeStyle;rounded=0;orthogonalLoop=1;jettySize=auto;html=1;" edge="1" parent="1" source="jz8JfMkmuA9fLfp2QGGS-9" target="jz8JfMkmuA9fLfp2QGGS-40">
          <mxGeometry relative="1" as="geometry" />
        </mxCell>
        <mxCell id="jz8JfMkmuA9fLfp2QGGS-9" value="ISR" style="strokeWidth=2;html=1;shape=mxgraph.flowchart.start_1;whiteSpace=wrap;" vertex="1" parent="1">
          <mxGeometry x="280" y="20" width="100" height="60" as="geometry" />
        </mxCell>
        <mxCell id="jz8JfMkmuA9fLfp2QGGS-13" value="" style="edgeStyle=orthogonalEdgeStyle;rounded=0;orthogonalLoop=1;jettySize=auto;html=1;" edge="1" parent="1" source="jz8JfMkmuA9fLfp2QGGS-10" target="jz8JfMkmuA9fLfp2QGGS-12">
          <mxGeometry relative="1" as="geometry" />
        </mxCell>
        <mxCell id="jz8JfMkmuA9fLfp2QGGS-27" style="edgeStyle=orthogonalEdgeStyle;rounded=0;orthogonalLoop=1;jettySize=auto;html=1;entryX=0.5;entryY=0;entryDx=0;entryDy=0;" edge="1" parent="1" source="jz8JfMkmuA9fLfp2QGGS-10" target="jz8JfMkmuA9fLfp2QGGS-25">
          <mxGeometry relative="1" as="geometry" />
        </mxCell>
        <mxCell id="jz8JfMkmuA9fLfp2QGGS-10" value="TMR2IF?" style="rhombus;whiteSpace=wrap;html=1;strokeWidth=2;" vertex="1" parent="1">
          <mxGeometry x="290" y="225" width="80" height="80" as="geometry" />
        </mxCell>
        <mxCell id="jz8JfMkmuA9fLfp2QGGS-15" value="" style="edgeStyle=orthogonalEdgeStyle;rounded=0;orthogonalLoop=1;jettySize=auto;html=1;" edge="1" parent="1" source="jz8JfMkmuA9fLfp2QGGS-12" target="jz8JfMkmuA9fLfp2QGGS-14">
          <mxGeometry relative="1" as="geometry" />
        </mxCell>
        <mxCell id="jz8JfMkmuA9fLfp2QGGS-12" value="Request next&lt;div&gt;slaves status&lt;/div&gt;" style="shape=parallelogram;perimeter=parallelogramPerimeter;whiteSpace=wrap;html=1;fixedSize=1;strokeWidth=2;" vertex="1" parent="1">
          <mxGeometry x="390" y="235" width="120" height="60" as="geometry" />
        </mxCell>
        <mxCell id="jz8JfMkmuA9fLfp2QGGS-17" value="" style="edgeStyle=orthogonalEdgeStyle;rounded=0;orthogonalLoop=1;jettySize=auto;html=1;" edge="1" parent="1" source="jz8JfMkmuA9fLfp2QGGS-14" target="jz8JfMkmuA9fLfp2QGGS-16">
          <mxGeometry relative="1" as="geometry" />
        </mxCell>
        <mxCell id="jz8JfMkmuA9fLfp2QGGS-51" style="edgeStyle=orthogonalEdgeStyle;rounded=0;orthogonalLoop=1;jettySize=auto;html=1;" edge="1" parent="1">
          <mxGeometry relative="1" as="geometry">
            <mxPoint x="585" y="470" as="targetPoint" />
            <mxPoint x="584.75" y="309.9999999999999" as="sourcePoint" />
          </mxGeometry>
        </mxCell>
        <mxCell id="jz8JfMkmuA9fLfp2QGGS-14" value="Score recorded?" style="rhombus;whiteSpace=wrap;html=1;strokeWidth=2;" vertex="1" parent="1">
          <mxGeometry x="540" y="220" width="90" height="90" as="geometry" />
        </mxCell>
        <mxCell id="jz8JfMkmuA9fLfp2QGGS-19" value="" style="edgeStyle=orthogonalEdgeStyle;rounded=0;orthogonalLoop=1;jettySize=auto;html=1;" edge="1" parent="1" source="jz8JfMkmuA9fLfp2QGGS-16" target="jz8JfMkmuA9fLfp2QGGS-18">
          <mxGeometry relative="1" as="geometry" />
        </mxCell>
        <mxCell id="jz8JfMkmuA9fLfp2QGGS-21" value="" style="edgeStyle=orthogonalEdgeStyle;rounded=0;orthogonalLoop=1;jettySize=auto;html=1;" edge="1" parent="1" source="jz8JfMkmuA9fLfp2QGGS-16" target="jz8JfMkmuA9fLfp2QGGS-20">
          <mxGeometry relative="1" as="geometry" />
        </mxCell>
        <mxCell id="jz8JfMkmuA9fLfp2QGGS-16" value="Player 1&lt;div&gt;score?&lt;/div&gt;" style="rhombus;whiteSpace=wrap;html=1;strokeWidth=2;" vertex="1" parent="1">
          <mxGeometry x="670" y="225" width="80" height="80" as="geometry" />
        </mxCell>
        <mxCell id="jz8JfMkmuA9fLfp2QGGS-24" style="edgeStyle=orthogonalEdgeStyle;rounded=0;orthogonalLoop=1;jettySize=auto;html=1;entryX=1;entryY=0.5;entryDx=0;entryDy=0;exitX=0.428;exitY=0.962;exitDx=0;exitDy=0;exitPerimeter=0;" edge="1" parent="1" source="jz8JfMkmuA9fLfp2QGGS-18" target="jz8JfMkmuA9fLfp2QGGS-22">
          <mxGeometry relative="1" as="geometry">
            <Array as="points">
              <mxPoint x="830" y="293" />
              <mxPoint x="830" y="475" />
            </Array>
          </mxGeometry>
        </mxCell>
        <mxCell id="jz8JfMkmuA9fLfp2QGGS-18" value="Increment&lt;div&gt;Player 1&#39;s score&lt;/div&gt;" style="shape=parallelogram;perimeter=parallelogramPerimeter;whiteSpace=wrap;html=1;fixedSize=1;strokeWidth=2;" vertex="1" parent="1">
          <mxGeometry x="780" y="235" width="120" height="60" as="geometry" />
        </mxCell>
        <mxCell id="jz8JfMkmuA9fLfp2QGGS-23" value="" style="edgeStyle=orthogonalEdgeStyle;rounded=0;orthogonalLoop=1;jettySize=auto;html=1;" edge="1" parent="1" source="jz8JfMkmuA9fLfp2QGGS-20" target="jz8JfMkmuA9fLfp2QGGS-22">
          <mxGeometry relative="1" as="geometry" />
        </mxCell>
        <mxCell id="jz8JfMkmuA9fLfp2QGGS-20" value="Increment&lt;div&gt;Player 2&#39;s score&lt;/div&gt;" style="shape=parallelogram;perimeter=parallelogramPerimeter;whiteSpace=wrap;html=1;fixedSize=1;strokeWidth=2;" vertex="1" parent="1">
          <mxGeometry x="650" y="345" width="120" height="60" as="geometry" />
        </mxCell>
        <mxCell id="jz8JfMkmuA9fLfp2QGGS-26" value="" style="edgeStyle=orthogonalEdgeStyle;rounded=0;orthogonalLoop=1;jettySize=auto;html=1;" edge="1" parent="1" source="jz8JfMkmuA9fLfp2QGGS-22" target="jz8JfMkmuA9fLfp2QGGS-25">
          <mxGeometry relative="1" as="geometry" />
        </mxCell>
        <mxCell id="jz8JfMkmuA9fLfp2QGGS-22" value="Update Display" style="shape=parallelogram;perimeter=parallelogramPerimeter;whiteSpace=wrap;html=1;fixedSize=1;strokeWidth=2;" vertex="1" parent="1">
          <mxGeometry x="650" y="445" width="120" height="60" as="geometry" />
        </mxCell>
        <mxCell id="jz8JfMkmuA9fLfp2QGGS-30" value="" style="edgeStyle=orthogonalEdgeStyle;rounded=0;orthogonalLoop=1;jettySize=auto;html=1;" edge="1" parent="1" source="jz8JfMkmuA9fLfp2QGGS-25" target="jz8JfMkmuA9fLfp2QGGS-29">
          <mxGeometry relative="1" as="geometry" />
        </mxCell>
        <mxCell id="jz8JfMkmuA9fLfp2QGGS-25" value="Reset Interrupt&lt;div&gt;Flags&lt;/div&gt;" style="shape=parallelogram;perimeter=parallelogramPerimeter;whiteSpace=wrap;html=1;fixedSize=1;strokeWidth=2;" vertex="1" parent="1">
          <mxGeometry x="270" y="445" width="120" height="60" as="geometry" />
        </mxCell>
        <mxCell id="jz8JfMkmuA9fLfp2QGGS-29" value="End ISR" style="strokeWidth=2;html=1;shape=mxgraph.flowchart.terminator;whiteSpace=wrap;" vertex="1" parent="1">
          <mxGeometry x="280" y="535" width="100" height="60" as="geometry" />
        </mxCell>
        <mxCell id="jz8JfMkmuA9fLfp2QGGS-31" value="Y" style="text;html=1;align=center;verticalAlign=middle;resizable=0;points=[];autosize=1;strokeColor=none;fillColor=none;" vertex="1" parent="1">
          <mxGeometry x="360" y="235" width="30" height="30" as="geometry" />
        </mxCell>
        <mxCell id="jz8JfMkmuA9fLfp2QGGS-32" value="Y" style="text;html=1;align=center;verticalAlign=middle;resizable=0;points=[];autosize=1;strokeColor=none;fillColor=none;" vertex="1" parent="1">
          <mxGeometry x="620" y="235" width="30" height="30" as="geometry" />
        </mxCell>
        <mxCell id="jz8JfMkmuA9fLfp2QGGS-33" value="Y" style="text;html=1;align=center;verticalAlign=middle;resizable=0;points=[];autosize=1;strokeColor=none;fillColor=none;" vertex="1" parent="1">
          <mxGeometry x="740" y="235" width="30" height="30" as="geometry" />
        </mxCell>
        <mxCell id="jz8JfMkmuA9fLfp2QGGS-37" value="" style="edgeStyle=orthogonalEdgeStyle;rounded=0;orthogonalLoop=1;jettySize=auto;html=1;" edge="1" parent="1" source="jz8JfMkmuA9fLfp2QGGS-35" target="jz8JfMkmuA9fLfp2QGGS-6">
          <mxGeometry relative="1" as="geometry" />
        </mxCell>
        <mxCell id="jz8JfMkmuA9fLfp2QGGS-38" style="edgeStyle=orthogonalEdgeStyle;rounded=0;orthogonalLoop=1;jettySize=auto;html=1;" edge="1" parent="1" source="jz8JfMkmuA9fLfp2QGGS-35">
          <mxGeometry relative="1" as="geometry">
            <mxPoint x="160" y="330" as="targetPoint" />
          </mxGeometry>
        </mxCell>
        <mxCell id="jz8JfMkmuA9fLfp2QGGS-35" value="Active&lt;div&gt;Game?&lt;/div&gt;" style="rhombus;whiteSpace=wrap;html=1;strokeWidth=2;" vertex="1" parent="1">
          <mxGeometry x="40" y="290" width="80" height="80" as="geometry" />
        </mxCell>
        <mxCell id="jz8JfMkmuA9fLfp2QGGS-42" value="" style="edgeStyle=orthogonalEdgeStyle;rounded=0;orthogonalLoop=1;jettySize=auto;html=1;entryX=0.5;entryY=0;entryDx=0;entryDy=0;" edge="1" parent="1" source="jz8JfMkmuA9fLfp2QGGS-40" target="jz8JfMkmuA9fLfp2QGGS-10">
          <mxGeometry relative="1" as="geometry" />
        </mxCell>
        <mxCell id="jz8JfMkmuA9fLfp2QGGS-43" style="edgeStyle=orthogonalEdgeStyle;rounded=0;orthogonalLoop=1;jettySize=auto;html=1;entryX=0;entryY=0.5;entryDx=0;entryDy=0;" edge="1" parent="1" source="jz8JfMkmuA9fLfp2QGGS-40" target="jz8JfMkmuA9fLfp2QGGS-25">
          <mxGeometry relative="1" as="geometry">
            <Array as="points">
              <mxPoint x="250" y="150" />
              <mxPoint x="250" y="475" />
            </Array>
          </mxGeometry>
        </mxCell>
        <mxCell id="jz8JfMkmuA9fLfp2QGGS-40" value="Active&lt;div&gt;Game?&lt;/div&gt;" style="rhombus;whiteSpace=wrap;html=1;strokeWidth=2;" vertex="1" parent="1">
          <mxGeometry x="290" y="110" width="80" height="80" as="geometry" />
        </mxCell>
        <mxCell id="jz8JfMkmuA9fLfp2QGGS-44" value="Y" style="text;html=1;align=center;verticalAlign=middle;resizable=0;points=[];autosize=1;strokeColor=none;fillColor=none;" vertex="1" parent="1">
          <mxGeometry x="300" y="180" width="30" height="30" as="geometry" />
        </mxCell>
        <mxCell id="jz8JfMkmuA9fLfp2QGGS-45" value="Y" style="text;html=1;align=center;verticalAlign=middle;resizable=0;points=[];autosize=1;strokeColor=none;fillColor=none;" vertex="1" parent="1">
          <mxGeometry x="50" y="360" width="30" height="30" as="geometry" />
        </mxCell>
        <mxCell id="jz8JfMkmuA9fLfp2QGGS-46" value="N" style="text;html=1;align=center;verticalAlign=middle;resizable=0;points=[];autosize=1;strokeColor=none;fillColor=none;" vertex="1" parent="1">
          <mxGeometry x="110" y="305" width="30" height="30" as="geometry" />
        </mxCell>
        <mxCell id="jz8JfMkmuA9fLfp2QGGS-48" value="N" style="text;html=1;align=center;verticalAlign=middle;resizable=0;points=[];autosize=1;strokeColor=none;fillColor=none;" vertex="1" parent="1">
          <mxGeometry x="300" y="295" width="30" height="30" as="geometry" />
        </mxCell>
        <mxCell id="jz8JfMkmuA9fLfp2QGGS-49" value="N" style="text;html=1;align=center;verticalAlign=middle;resizable=0;points=[];autosize=1;strokeColor=none;fillColor=none;" vertex="1" parent="1">
          <mxGeometry x="550" y="295" width="30" height="30" as="geometry" />
        </mxCell>
        <mxCell id="jz8JfMkmuA9fLfp2QGGS-50" value="N" style="text;html=1;align=center;verticalAlign=middle;resizable=0;points=[];autosize=1;strokeColor=none;fillColor=none;" vertex="1" parent="1">
          <mxGeometry x="680" y="295" width="30" height="30" as="geometry" />
        </mxCell>
        <mxCell id="jz8JfMkmuA9fLfp2QGGS-52" value="N" style="text;html=1;align=center;verticalAlign=middle;resizable=0;points=[];autosize=1;strokeColor=none;fillColor=none;" vertex="1" parent="1">
          <mxGeometry x="270" y="125" width="30" height="30" as="geometry" />
        </mxCell>
      </root>
    </mxGraphModel>
  </diagram>
</mxfile>
